<?xml version="1.0" encoding="UTF-8" standalone="no"?><!DOCTYPE svg PUBLIC "-//W3C//DTD SVG 1.1//EN" "http://www.w3.org/Graphics/SVG/1.1/DTD/svg11.dtd"><svg width="100%" height="100%" viewBox="0 0 417 417" version="1.1" xmlns="http://www.w3.org/2000/svg" xmlns:xlink="http://www.w3.org/1999/xlink" xml:space="preserve" xmlns:serif="http://www.serif.com/" style="fill-rule:evenodd;clip-rule:evenodd;stroke-linejoin:round;stroke-miterlimit:2;"><path d="M213.312,-0c19.803,-0 39.938,19.833 65.137,27.331c27.795,8.271 47.933,-1.648 63.379,11.77c29.448,25.584 58.6,51.414 58.6,87.595c-0,21.359 21.683,75.462 14.938,123.668c-2.074,14.824 -6.053,32.201 -15.008,44.037c-11.255,14.874 -28.226,22.99 -34.944,28.827c-29.449,25.584 -144.987,59.658 -181.897,78.788c-87.101,45.142 -120.752,-26.092 -150.2,-51.676c-29.449,-25.584 -33.317,-122.012 -33.317,-158.193c-0,-36.181 65.456,-78.299 82.532,-113.238c34.118,-69.811 89.134,-78.909 130.78,-78.909Z"/></svg>