<svg xmlns="http://www.w3.org/2000/svg" viewBox="0 0 1750 1250" width="1750" height="1250" preserveAspectRatio="xMidYMid meet" style="width: 100%; height: 100%; transform: translate3d(0px, 0px, 0px);"><defs><clipPath id="__lottie_element_95"><rect width="1750" height="1250" x="0" y="0"></rect></clipPath><mask id="__lottie_element_96" mask-type="alpha"><g clip-path="url(#__lottie_element_97)" transform="matrix(1,0,0,1,-2,-23)" opacity="1" style="display: block;"><g transform="matrix(1,0,0,0.9999999403953552,2380.0009765625,375.501220703125)" opacity="1" style="display: block;"><g opacity="1" transform="matrix(1,0,0,1,-722.447021484375,-43.5890007019043)"><path fill="rgb(35,35,35)" fill-opacity="1" d=" M4.807499885559082,-211.6320037841797 C4.807499885559082,-211.6320037841797 4.807499885559082,211.6320037841797 4.807499885559082,211.6320037841797 C4.807499885559082,214.28526306152344 2.65325927734375,216.4394989013672 0,216.4394989013672 C0,216.4394989013672 0,216.4394989013672 0,216.4394989013672 C-2.65325927734375,216.4394989013672 -4.807499885559082,214.28526306152344 -4.807499885559082,211.6320037841797 C-4.807499885559082,211.6320037841797 -4.807499885559082,-211.6320037841797 -4.807499885559082,-211.6320037841797 C-4.807499885559082,-214.28526306152344 -2.65325927734375,-216.4394989013672 0,-216.4394989013672 C0,-216.4394989013672 0,-216.4394989013672 0,-216.4394989013672 C2.65325927734375,-216.4394989013672 4.807499885559082,-214.28526306152344 4.807499885559082,-211.6320037841797z"></path></g></g><g transform="matrix(1,0,0,0.9999999403953552,2206.0009765625,460.0001525878906)" opacity="1" style="display: block;"><g opacity="1" transform="matrix(1,0,0,1,-722.447021484375,1.9500000476837158)"><path fill="rgb(35,35,35)" fill-opacity="1" d=" M4.807499885559082,-412.13201904296875 C4.807499885559082,-412.13201904296875 4.807499885559082,412.13201904296875 4.807499885559082,412.13201904296875 C4.807499885559082,414.7852783203125 2.65325927734375,416.93951416015625 0,416.93951416015625 C0,416.93951416015625 0,416.93951416015625 0,416.93951416015625 C-2.65325927734375,416.93951416015625 -4.807499885559082,414.7852783203125 -4.807499885559082,412.13201904296875 C-4.807499885559082,412.13201904296875 -4.807499885559082,-412.13201904296875 -4.807499885559082,-412.13201904296875 C-4.807499885559082,-414.7852783203125 -2.65325927734375,-416.93951416015625 0,-416.93951416015625 C0,-416.93951416015625 0,-416.93951416015625 0,-416.93951416015625 C2.65325927734375,-416.93951416015625 4.807499885559082,-414.7852783203125 4.807499885559082,-412.13201904296875z"></path></g></g><g transform="matrix(1,0,0,0.9999999403953552,2030.5,731.9998168945312)" opacity="1" style="display: block;"><g opacity="1" transform="matrix(1,0,0,1,-722.447021484375,-45.06100082397461)"><path fill="rgb(35,35,35)" fill-opacity="1" d=" M4.807499885559082,-133.1320037841797 C4.807499885559082,-133.1320037841797 4.807499885559082,133.1320037841797 4.807499885559082,133.1320037841797 C4.807499885559082,135.78526306152344 2.65325927734375,137.9394989013672 0,137.9394989013672 C0,137.9394989013672 0,137.9394989013672 0,137.9394989013672 C-2.65325927734375,137.9394989013672 -4.807499885559082,135.78526306152344 -4.807499885559082,133.1320037841797 C-4.807499885559082,133.1320037841797 -4.807499885559082,-133.1320037841797 -4.807499885559082,-133.1320037841797 C-4.807499885559082,-135.78526306152344 -2.65325927734375,-137.9394989013672 0,-137.9394989013672 C0,-137.9394989013672 0,-137.9394989013672 0,-137.9394989013672 C2.65325927734375,-137.9394989013672 4.807499885559082,-135.78526306152344 4.807499885559082,-133.1320037841797z"></path></g></g><g transform="matrix(1,0,0,0.9999999403953552,1861,795.50048828125)" opacity="1" style="display: block;"><g opacity="1" transform="matrix(1,0,0,1,-722.447021484375,-45.06100082397461)"><path fill="rgb(35,35,35)" fill-opacity="1" d=" M4.807499885559082,-158.6320037841797 C4.807499885559082,-158.6320037841797 4.807499885559082,158.6320037841797 4.807499885559082,158.6320037841797 C4.807499885559082,161.28526306152344 2.65325927734375,163.4394989013672 0,163.4394989013672 C0,163.4394989013672 0,163.4394989013672 0,163.4394989013672 C-2.65325927734375,163.4394989013672 -4.807499885559082,161.28526306152344 -4.807499885559082,158.6320037841797 C-4.807499885559082,158.6320037841797 -4.807499885559082,-158.6320037841797 -4.807499885559082,-158.6320037841797 C-4.807499885559082,-161.28526306152344 -2.65325927734375,-163.4394989013672 0,-163.4394989013672 C0,-163.4394989013672 0,-163.4394989013672 0,-163.4394989013672 C2.65325927734375,-163.4394989013672 4.807499885559082,-161.28526306152344 4.807499885559082,-158.6320037841797z"></path></g></g><g transform="matrix(1,0,0,0.9999999403953552,1687,929.0009155273438)" opacity="1" style="display: block;"><g opacity="1" transform="matrix(1,0,0,1,-722.447021484375,-45.06100082397461)"><path fill="rgb(35,35,35)" fill-opacity="1" d=" M4.807499885559082,-133.1320037841797 C4.807499885559082,-133.1320037841797 4.807499885559082,133.1320037841797 4.807499885559082,133.1320037841797 C4.807499885559082,135.78526306152344 2.65325927734375,137.9394989013672 0,137.9394989013672 C0,137.9394989013672 0,137.9394989013672 0,137.9394989013672 C-2.65325927734375,137.9394989013672 -4.807499885559082,135.78526306152344 -4.807499885559082,133.1320037841797 C-4.807499885559082,133.1320037841797 -4.807499885559082,-133.1320037841797 -4.807499885559082,-133.1320037841797 C-4.807499885559082,-135.78526306152344 -2.65325927734375,-137.9394989013672 0,-137.9394989013672 C0,-137.9394989013672 0,-137.9394989013672 0,-137.9394989013672 C2.65325927734375,-137.9394989013672 4.807499885559082,-135.78526306152344 4.807499885559082,-133.1320037841797z"></path></g></g><g transform="matrix(1,0,0,0.9999999403953552,1166.0009765625,941.5199584960938)" opacity="1" style="display: block;"><g opacity="1" transform="matrix(1,0,0,1,-722.447021484375,-3.5989999771118164)"><path fill="rgb(35,35,35)" fill-opacity="1" d=" M4.807499885559082,-275.63201904296875 C4.807499885559082,-275.63201904296875 4.807499885559082,275.63201904296875 4.807499885559082,275.63201904296875 C4.807499885559082,278.2852783203125 2.65325927734375,280.43951416015625 0,280.43951416015625 C0,280.43951416015625 0,280.43951416015625 0,280.43951416015625 C-2.65325927734375,280.43951416015625 -4.807499885559082,278.2852783203125 -4.807499885559082,275.63201904296875 C-4.807499885559082,275.63201904296875 -4.807499885559082,-275.63201904296875 -4.807499885559082,-275.63201904296875 C-4.807499885559082,-278.2852783203125 -2.65325927734375,-280.43951416015625 0,-280.43951416015625 C0,-280.43951416015625 0,-280.43951416015625 0,-280.43951416015625 C2.65325927734375,-280.43951416015625 4.807499885559082,-278.2852783203125 4.807499885559082,-275.63201904296875z"></path></g></g><g transform="matrix(1,0,0,0.9999999403953552,1336.0009765625,984)" opacity="1" style="display: block;"><g opacity="1" transform="matrix(1,0,0,1,-722.447021484375,-45.06100082397461)"><path fill="rgb(35,35,35)" fill-opacity="1" d=" M4.807499885559082,-133.1320037841797 C4.807499885559082,-133.1320037841797 4.807499885559082,133.1320037841797 4.807499885559082,133.1320037841797 C4.807499885559082,135.78526306152344 2.65325927734375,137.9394989013672 0,137.9394989013672 C0,137.9394989013672 0,137.9394989013672 0,137.9394989013672 C-2.65325927734375,137.9394989013672 -4.807499885559082,135.78526306152344 -4.807499885559082,133.1320037841797 C-4.807499885559082,133.1320037841797 -4.807499885559082,-133.1320037841797 -4.807499885559082,-133.1320037841797 C-4.807499885559082,-135.78526306152344 -2.65325927734375,-137.9394989013672 0,-137.9394989013672 C0,-137.9394989013672 0,-137.9394989013672 0,-137.9394989013672 C2.65325927734375,-137.9394989013672 4.807499885559082,-135.78526306152344 4.807499885559082,-133.1320037841797z"></path></g></g><g transform="matrix(1,0,0,0.9999999403953552,1511.0009765625,874.0005493164062)" opacity="1" style="display: block;"><g opacity="1" transform="matrix(1,0,0,1,-722.447021484375,-45.06100082397461)"><path fill="rgb(35,35,35)" fill-opacity="1" d=" M4.807499885559082,-133.1320037841797 C4.807499885559082,-133.1320037841797 4.807499885559082,133.1320037841797 4.807499885559082,133.1320037841797 C4.807499885559082,135.78526306152344 2.65325927734375,137.9394989013672 0,137.9394989013672 C0,137.9394989013672 0,137.9394989013672 0,137.9394989013672 C-2.65325927734375,137.9394989013672 -4.807499885559082,135.78526306152344 -4.807499885559082,133.1320037841797 C-4.807499885559082,133.1320037841797 -4.807499885559082,-133.1320037841797 -4.807499885559082,-133.1320037841797 C-4.807499885559082,-135.78526306152344 -2.65325927734375,-137.9394989013672 0,-137.9394989013672 C0,-137.9394989013672 0,-137.9394989013672 0,-137.9394989013672 C2.65325927734375,-137.9394989013672 4.807499885559082,-135.78526306152344 4.807499885559082,-133.1320037841797z"></path></g></g><g transform="matrix(1,0,0,0.9999999403953552,987.0009765625,1172.500244140625)" opacity="1" style="display: block;"><g opacity="1" transform="matrix(1,0,0,1,-722.447021484375,-4.986000061035156)"><path fill="rgb(35,35,35)" fill-opacity="1" d=" M4.807499885559082,-83.63199615478516 C4.807499885559082,-83.63199615478516 4.807499885559082,83.63199615478516 4.807499885559082,83.63199615478516 C4.807499885559082,86.2852554321289 2.65325927734375,88.43949890136719 0,88.43949890136719 C0,88.43949890136719 0,88.43949890136719 0,88.43949890136719 C-2.65325927734375,88.43949890136719 -4.807499885559082,86.2852554321289 -4.807499885559082,83.63199615478516 C-4.807499885559082,83.63199615478516 -4.807499885559082,-83.63199615478516 -4.807499885559082,-83.63199615478516 C-4.807499885559082,-86.2852554321289 -2.65325927734375,-88.43949890136719 0,-88.43949890136719 C0,-88.43949890136719 0,-88.43949890136719 0,-88.43949890136719 C2.65325927734375,-88.43949890136719 4.807499885559082,-86.2852554321289 4.807499885559082,-83.63199615478516z"></path></g></g><g transform="matrix(1,0,0,1,813.5,1143)" opacity="1" style="display: block;"><g opacity="1" transform="matrix(1,0,0,1,-722.447021484375,-58.06100082397461)"><path fill="rgb(35,35,35)" fill-opacity="1" d=" M4.807499885559082,-115.63199615478516 C4.807499885559082,-115.63199615478516 4.807499885559082,115.63199615478516 4.807499885559082,115.63199615478516 C4.807499885559082,118.2852554321289 2.65325927734375,120.43949890136719 0,120.43949890136719 C0,120.43949890136719 0,120.43949890136719 0,120.43949890136719 C-2.65325927734375,120.43949890136719 -4.807499885559082,118.2852554321289 -4.807499885559082,115.63199615478516 C-4.807499885559082,115.63199615478516 -4.807499885559082,-115.63199615478516 -4.807499885559082,-115.63199615478516 C-4.807499885559082,-118.2852554321289 -2.65325927734375,-120.43949890136719 0,-120.43949890136719 C0,-120.43949890136719 0,-120.43949890136719 0,-120.43949890136719 C2.65325927734375,-120.43949890136719 4.807499885559082,-118.2852554321289 4.807499885559082,-115.63199615478516z"></path></g></g><g transform="matrix(1,0,0,1.4416699409484863,91.93900299072266,1095.2869873046875)" opacity="1" style="display: block;"><path fill="rgb(35,35,35)" fill-opacity="1" d=" M50,-43.5 C55.51900100708008,-43.5 60,-39.01900100708008 60,-33.5 C60,-33.5 60,33.5 60,33.5 C60,39.01900100708008 55.51900100708008,43.5 50,43.5 C50,43.5 -50,43.5 -50,43.5 C-55.51900100708008,43.5 -60,39.01900100708008 -60,33.5 C-60,33.5 -60,-33.5 -60,-33.5 C-60,-39.01900100708008 -55.51900100708008,-43.5 -50,-43.5 C-50,-43.5 50,-43.5 50,-43.5z"></path></g><g transform="matrix(1,0,0,1.4416699409484863,265.4389953613281,1139.1600341796875)" opacity="1" style="display: block;"><path fill="rgb(35,35,35)" fill-opacity="1" d=" M50,-27.5 C55.51900100708008,-27.5 60,-23.018999099731445 60,-17.5 C60,-17.5 60,17.5 60,17.5 C60,23.018999099731445 55.51900100708008,27.5 50,27.5 C50,27.5 -50,27.5 -50,27.5 C-55.51900100708008,27.5 -60,23.018999099731445 -60,17.5 C-60,17.5 -60,-17.5 -60,-17.5 C-60,-23.018999099731445 -55.51900100708008,-27.5 -50,-27.5 C-50,-27.5 50,-27.5 50,-27.5z"></path></g><g transform="matrix(1,0,0,1.4416699409484863,788.4390258789062,881.6599731445312)" opacity="1" style="display: block;"><path fill="rgb(35,35,35)" fill-opacity="1" d=" M50,-59 C55.51900100708008,-59 60,-54.51900100708008 60,-49 C60,-49 60,49 60,49 C60,54.51900100708008 55.51900100708008,59 50,59 C50,59 -50,59 -50,59 C-55.51900100708008,59 -60,54.51900100708008 -60,49 C-60,49 -60,-49 -60,-49 C-60,-54.51900100708008 -55.51900100708008,-59 -50,-59 C-50,-59 50,-59 50,-59z"></path></g><g transform="matrix(1,0,0,1.4416699409484863,614.9390258789062,887.1599731445312)" opacity="1" style="display: block;"><path fill="rgb(35,35,35)" fill-opacity="1" d=" M50,-24 C55.51900100708008,-24 60,-19.518999099731445 60,-14 C60,-14 60,14 60,14 C60,19.518999099731445 55.51900100708008,24 50,24 C50,24 -50,24 -50,24 C-55.51900100708008,24 -60,19.518999099731445 -60,14 C-60,14 -60,-14 -60,-14 C-60,-19.518999099731445 -55.51900100708008,-24 -50,-24 C-50,-24 50,-24 50,-24z"></path></g><g transform="matrix(1,0,0,1.4416699409484863,444.4389953613281,945.6790161132812)" opacity="1" style="display: block;"><path fill="rgb(35,35,35)" fill-opacity="1" d=" M50,-147 C55.51900100708008,-147 60,-142.5189971923828 60,-137 C60,-137 60,137 60,137 C60,142.5189971923828 55.51900100708008,147 50,147 C50,147 -50,147 -50,147 C-55.51900100708008,147 -60,142.5189971923828 -60,137 C-60,137 -60,-137 -60,-137 C-60,-142.5189971923828 -55.51900100708008,-147 -50,-147 C-50,-147 50,-147 50,-147z"></path></g><g transform="matrix(1,0,0,1.4416699409484863,963.4390258789062,935.6599731445312)" opacity="1" style="display: block;"><path fill="rgb(35,35,35)" fill-opacity="1" d=" M50,-24 C55.51900100708008,-24 60,-19.518999099731445 60,-14 C60,-14 60,14 60,14 C60,19.518999099731445 55.51900100708008,24 50,24 C50,24 -50,24 -50,24 C-55.51900100708008,24 -60,19.518999099731445 -60,14 C-60,14 -60,-14 -60,-14 C-60,-19.518999099731445 -55.51900100708008,-24 -50,-24 C-50,-24 50,-24 50,-24z"></path></g><g transform="matrix(1,0,0,1.4416699409484863,1137.93896484375,750.1599731445312)" opacity="1" style="display: block;"><path fill="rgb(35,35,35)" fill-opacity="1" d=" M50,-95 C55.51900100708008,-95 60,-90.51899719238281 60,-85 C60,-85 60,85 60,85 C60,90.51899719238281 55.51900100708008,95 50,95 C50,95 -50,95 -50,95 C-55.51900100708008,95 -60,90.51899719238281 -60,85 C-60,85 -60,-85 -60,-85 C-60,-90.51899719238281 -55.51900100708008,-95 -50,-95 C-50,-95 50,-95 50,-95z"></path></g><g transform="matrix(1,0,0,1.4416699409484863,1307.93896484375,635.1599731445312)" opacity="1" style="display: block;"><path fill="rgb(35,35,35)" fill-opacity="1" d=" M50,-24 C55.51900100708008,-24 60,-19.518999099731445 60,-14 C60,-14 60,14 60,14 C60,19.518999099731445 55.51900100708008,24 50,24 C50,24 -50,24 -50,24 C-55.51900100708008,24 -60,19.518999099731445 -60,14 C-60,14 -60,-14 -60,-14 C-60,-19.518999099731445 -55.51900100708008,-24 -50,-24 C-50,-24 50,-24 50,-24z"></path></g><g transform="matrix(1,0,0,1.4416699409484863,1482.93896484375,410.1600036621094)" opacity="1" style="display: block;"><path fill="rgb(35,35,35)" fill-opacity="1" d=" M50,-200 C55.51900100708008,-200 60,-195.5189971923828 60,-190 C60,-190 60,190 60,190 C60,195.5189971923828 55.51900100708008,200 50,200 C50,200 -50,200 -50,200 C-55.51900100708008,200 -60,195.5189971923828 -60,190 C-60,190 -60,-190 -60,-190 C-60,-195.5189971923828 -55.51900100708008,-200 -50,-200 C-50,-200 50,-200 50,-200z"></path></g><g transform="matrix(1,0,0,1.4416699409484863,1656.43896484375,309.6600036621094)" opacity="1" style="display: block;"><path fill="rgb(35,35,35)" fill-opacity="1" d=" M50,-87 C55.51900100708008,-87 60,-82.51899719238281 60,-77 C60,-77 60,77 60,77 C60,82.51899719238281 55.51900100708008,87 50,87 C50,87 -50,87 -50,87 C-55.51900100708008,87 -60,82.51899719238281 -60,77 C-60,77 -60,-77 -60,-77 C-60,-82.51899719238281 -55.51900100708008,-87 -50,-87 C-50,-87 50,-87 50,-87z"></path></g></g></mask><clipPath id="__lottie_element_97"><path d="M0,0 L1750,0 L1750,1300 L0,1300z"></path></clipPath><linearGradient id="__lottie_element_163" spreadMethod="pad" gradientUnits="userSpaceOnUse" x1="0" y1="0" x2="100" y2="0"><stop offset="0%" stop-color="rgb(59,57,57)"></stop><stop offset="50%" stop-color="rgb(44,43,43)"></stop><stop offset="100%" stop-color="rgb(30,29,29)"></stop></linearGradient><linearGradient id="__lottie_element_164" spreadMethod="pad" gradientUnits="userSpaceOnUse" x1="26.845230102539062" y1="-5.802058696746826" x2="370.2468566894531" y2="-6.160822868347168"><stop offset="0%" stop-color="rgb(59,57,57)"></stop><stop offset="50%" stop-color="rgb(44,43,43)"></stop><stop offset="100%" stop-color="rgb(30,29,29)"></stop></linearGradient></defs><g clip-path="url(#__lottie_element_95)"><g mask="url(#__lottie_element_96)" style="display: block;"><g transform="matrix(5.718979835510254,0,0,4.108890056610107,3811.0322265625,1772.29931640625)" opacity="0.7000000000000001"><path fill="url(#__lottie_element_163)" fill-opacity="1" d=" M-352.2,-431.28 C-352.2,-431.28 -352.2,-122.81 -352.2,-122.81 C-352.2,-122.81 -676,-122.81 -676,-122.81 C-676,-122.81 -676,-431.28 -676,-431.28 C-676,-431.28 -352.2,-431.28 -352.2,-431.28z"></path><g opacity="1" transform="matrix(1,0,0,1.1099499464035034,-514.1010131835938,-277.04400634765625)"><path fill="url(#__lottie_element_164)" fill-opacity="1" d=" M161.8990020751953,-138.95599365234375 C161.8990020751953,-138.95599365234375 161.8990020751953,138.95599365234375 161.8990020751953,138.95599365234375 C161.8990020751953,138.95599365234375 -161.8990020751953,138.95599365234375 -161.8990020751953,138.95599365234375 C-161.8990020751953,138.95599365234375 -161.8990020751953,-138.95599365234375 -161.8990020751953,-138.95599365234375 C-161.8990020751953,-138.95599365234375 161.8990020751953,-138.95599365234375 161.8990020751953,-138.95599365234375z"></path></g></g></g></g></svg>
