<?xml version="1.0" encoding="UTF-8" standalone="no"?><!DOCTYPE svg PUBLIC "-//W3C//DTD SVG 1.1//EN" "http://www.w3.org/Graphics/SVG/1.1/DTD/svg11.dtd"><svg width="100%" height="100%" viewBox="0 0 1200 1200" version="1.1" xmlns="http://www.w3.org/2000/svg" xmlns:xlink="http://www.w3.org/1999/xlink" xml:space="preserve" xmlns:serif="http://www.serif.com/" style="fill-rule:evenodd;clip-rule:evenodd;stroke-linejoin:round;stroke-miterlimit:2;"><path d="M592.32,10.662c1.658,-2.413 4.398,-3.855 7.326,-3.855c2.928,-0 5.668,1.442 7.326,3.855c38.737,56.375 217.933,317.16 217.933,317.16l0.021,-0.031c-0,0 289.282,424.979 366.587,538.546c4.987,7.326 7.788,17.262 7.788,27.622c0,10.36 -2.801,20.296 -7.788,27.622c-41.684,61.238 -141.634,208.071 -185.572,272.62c-0.008,0.011 -0.015,0.022 -0.021,0.036c-3.453,5.066 -8.666,6.597 -13.199,3.879c-4.534,-2.719 -7.492,-9.15 -7.49,-16.286l-0,-354.861c-0,-4.813 -1.302,-9.429 -3.619,-12.833c-2.316,-3.403 -5.459,-5.315 -8.735,-5.315l-271.937,-0c0,-0 -98.144,-0.209 -103.288,-0.22l-99.291,0.212l-271.937,0c-3.276,0 -6.418,1.912 -8.735,5.316c-2.317,3.403 -3.618,8.02 -3.618,12.833l-0,354.861c0.001,7.136 -2.957,13.567 -7.491,16.286c-4.533,2.718 -9.745,1.186 -13.199,-3.879c-0.005,-0.014 -0.013,-0.025 -0.021,-0.036c-43.938,-64.549 -143.887,-211.383 -185.572,-272.62c-4.986,-7.326 -7.788,-17.262 -7.788,-27.622c-0,-10.361 2.801,-20.297 7.788,-27.622c77.305,-113.567 366.587,-538.546 366.587,-538.546l0.022,0.031c-0,0 179.186,-260.778 217.923,-317.153Zm174.321,981.797c-0,-17.255 9.611,-31.243 21.468,-31.243l77.172,-0c3.307,-0 6.479,1.912 8.818,5.315c2.339,3.404 3.653,8.02 3.653,12.833l-0,112.909c-0,8.127 -2.219,15.922 -6.168,21.669c-3.949,5.747 -9.304,8.975 -14.889,8.975c-19.955,0 -49.739,0 -69.521,0c-5.446,0 -10.668,-3.148 -14.519,-8.752c-3.851,-5.605 -6.014,-13.205 -6.014,-21.131c-0,-28.591 -0,-71.54 -0,-100.575Zm-333.98,-0.007c-0,-17.256 -9.612,-31.244 -21.469,-31.244l-77.172,0c-3.307,0 -6.479,1.912 -8.818,5.316c-2.339,3.403 -3.652,8.02 -3.652,12.833l-0,112.909c-0,8.127 2.218,15.921 6.167,21.668c3.949,5.747 9.305,8.976 14.889,8.976c19.956,-0 49.74,-0 69.521,-0c5.446,-0 10.669,-3.149 14.519,-8.753c3.851,-5.604 6.015,-13.205 6.015,-21.13c-0,-28.591 -0,-71.54 -0,-100.575Zm24.49,-358.331c-3.255,-0.011 -6.243,-1.799 -7.791,-4.661c-1.548,-2.863 -1.408,-6.343 0.365,-9.071c28.444,-43.774 116.897,-179.898 143.116,-220.247c1.633,-2.514 4.424,-4.035 7.422,-4.045c2.998,-0.011 5.799,1.49 7.45,3.993c26.612,40.328 116.695,176.84 145.873,221.057c1.818,2.756 1.974,6.288 0.404,9.193c-1.569,2.905 -4.609,4.711 -7.911,4.701c-55.595,-0.177 -233.92,-0.745 -288.928,-0.92Z" style="fill:#c69f38;"/><path d="M466.311,978.397c-0,-4.42 -1.756,-8.659 -4.882,-11.785c-3.125,-3.125 -7.365,-4.881 -11.785,-4.881c-31.933,-0 -101.4,-0 -133.333,-0c-4.42,-0 -8.66,1.756 -11.785,4.881c-3.126,3.126 -4.882,7.365 -4.882,11.785c0,31.934 0,101.4 0,133.333c0,4.421 1.756,8.66 4.882,11.786c3.125,3.125 7.365,4.881 11.785,4.881c31.933,0 101.4,0 133.333,0c4.42,0 8.66,-1.756 11.785,-4.881c3.126,-3.126 4.882,-7.365 4.882,-11.786l-0,-133.333Z" style="fill:#c69f38;"/><path d="M900.108,978.26c0,-4.421 -1.756,-8.66 -4.881,-11.785c-3.126,-3.126 -7.365,-4.882 -11.786,-4.882c-31.933,-0 -101.399,-0 -133.333,-0c-4.42,-0 -8.659,1.756 -11.785,4.882c-3.126,3.125 -4.882,7.364 -4.881,11.785c-0,31.933 -0,101.399 -0,133.333c-0.001,4.42 1.755,8.659 4.881,11.785c3.126,3.126 7.365,4.882 11.785,4.882c31.934,-0 101.4,-0 133.333,-0c4.421,-0 8.66,-1.756 11.786,-4.882c3.125,-3.126 4.881,-7.365 4.881,-11.785l0,-133.333Z" style="fill:#c69f38;"/></svg>